<svg width="15" height="16" viewBox="0 0 15 16" fill="none" xmlns="http://www.w3.org/2000/svg">
<g clip-path="url(#clip0_46_4478)">
<path d="M14.402 4.81135C13.2384 2.08113 10.5309 0.199219 7.46912 0.199219C3.30553 0.199219 0 3.63475 0 7.72685C0 11.8189 3.34128 15.196 7.46912 15.196C11.597 15.196 14.9967 11.8839 14.9967 7.72685C14.9967 6.71926 14.7952 5.73768 14.3987 4.8081L14.402 4.81135Z" fill="black"/>
<path d="M11.7692 5.57557C11.7172 5.51056 11.6392 5.47481 11.558 5.47481H4.67389L4.47562 4.92876C4.43662 4.82151 4.33261 4.75 4.21885 4.75H2.35969C2.21018 4.75 2.08667 4.87351 2.08667 5.02302C2.08667 5.17254 2.21018 5.29605 2.35969 5.29605H4.02708L5.55471 9.4954L5.14842 11.0783C5.12892 11.1595 5.14517 11.2473 5.19718 11.3123C5.24918 11.3773 5.32719 11.4163 5.4117 11.4163H5.90249C6.0195 11.7771 6.36078 12.0241 6.74106 12.0241C7.12134 12.0241 7.46262 11.7738 7.57963 11.4163H8.96749C9.0845 11.7771 9.42578 12.0241 9.80606 12.0241C10.2936 12.0241 10.6869 11.6276 10.6869 11.1433C10.6869 10.659 10.2904 10.2625 9.80606 10.2625C9.42578 10.2625 9.0845 10.5127 8.96749 10.8703H7.57963C7.46262 10.5095 7.12134 10.2625 6.74106 10.2625C6.36078 10.2625 6.0195 10.5127 5.90249 10.8703H5.76273L6.052 9.75217H10.7649C10.8917 9.75217 11.0054 9.66116 11.0314 9.5344L11.8212 5.79984C11.8375 5.71858 11.8212 5.63732 11.766 5.57232L11.7692 5.57557ZM10.8234 7.90926L10.5504 9.20612H10.4204L9.89382 7.88001H10.8136L10.8234 7.90601V7.90926ZM9.30552 7.88326L9.83206 9.20937H8.91224L8.38569 7.88326H9.30552ZM9.14951 6.02086H10.0693L10.5926 7.34047H9.6728L9.14951 6.02086ZM7.80065 7.88326L8.32719 9.20937H7.40736L6.88082 7.88326H7.80065ZM7.64463 6.02086H8.56446L9.08775 7.34047H8.16793L7.64463 6.02086ZM4.87215 6.02086H5.55146L6.07475 7.34047H5.34994L4.8689 6.02086H4.87215ZM6.29252 7.88326L6.81906 9.20937H6.0325L5.55146 7.88326H6.29577H6.29252ZM6.13651 6.02086H7.05633L7.57963 7.34047H6.6598L6.13651 6.02086ZM11.2167 6.02086L11.0217 6.95043L10.6511 6.02086H11.2167ZM6.40303 11.1205C6.41603 10.945 6.56229 10.8085 6.73781 10.8085C6.92307 10.8085 7.07584 10.958 7.07584 11.1465C7.07584 11.335 6.92632 11.4846 6.73781 11.4846C6.56229 11.4846 6.41603 11.348 6.40303 11.1823C6.40303 11.1725 6.40303 11.1595 6.40303 11.1498C6.40303 11.14 6.40303 11.127 6.40303 11.1238V11.1205ZM9.46478 11.1465C9.46478 10.9613 9.6143 10.8085 9.80281 10.8085C9.99133 10.8085 10.1408 10.958 10.1408 11.1465C10.1408 11.335 9.99133 11.4846 9.80281 11.4846C9.6143 11.4846 9.46478 11.335 9.46478 11.1465Z" fill="white"/>
</g>
<defs>
<clipPath id="clip0_46_4478">
<rect width="15" height="15" fill="white" transform="translate(0 0.199219)"/>
</clipPath>
</defs>
</svg>
