<svg width="15" height="15" viewBox="0 0 15 15" fill="none" xmlns="http://www.w3.org/2000/svg">
<g clip-path="url(#clip0_46_4464)">
<path d="M14.402 4.61213C13.2384 1.88191 10.5309 0 7.46912 0C3.30553 0 0 3.43554 0 7.53088C0 11.6262 3.34128 15 7.46912 15C11.597 15 14.9967 11.688 14.9967 7.53088C14.9967 6.52329 14.7952 5.54171 14.3987 4.61213H14.402Z" fill="black"/>
<path d="M7.49838 2.31055C5.48646 2.31055 3.84833 3.94868 3.84833 5.9606C3.84833 6.63991 4.03684 7.30296 4.39437 7.87826L7.29036 12.5456C7.34562 12.6367 7.44313 12.6887 7.54714 12.6887C7.65439 12.6887 7.7519 12.6334 7.80716 12.5424L10.6284 7.82951C10.9664 7.26721 11.1419 6.62041 11.1419 5.9606C11.1419 3.94868 9.5038 2.31055 7.49188 2.31055H7.49838ZM10.1116 7.51748L7.54389 11.8013L4.91117 7.55648C4.61539 7.07869 4.45288 6.52615 4.45288 5.95735C4.45288 4.28021 5.82124 2.91185 7.49838 2.91185C9.17552 2.91185 10.5406 4.28021 10.5406 5.95735C10.5406 6.50665 10.3911 7.04619 10.1116 7.51423V7.51748Z" fill="white"/>
<path d="M7.49839 4.13477C6.49081 4.13477 5.67499 4.95383 5.67499 5.95817C5.67499 6.9625 6.48106 7.78157 7.49839 7.78157C8.51572 7.78157 9.32179 6.94625 9.32179 5.95817C9.32179 4.97009 8.50272 4.13477 7.49839 4.13477ZM7.49839 7.18027C6.82558 7.18027 6.27954 6.63097 6.27954 5.96142C6.27954 5.29186 6.82883 4.74257 7.49839 4.74257C8.16795 4.74257 8.71724 5.29186 8.71724 5.96142C8.71724 6.63097 8.1842 7.18027 7.49839 7.18027Z" fill="white"/>
</g>
<defs>
<clipPath id="clip0_46_4464">
<rect width="15" height="15" fill="white"/>
</clipPath>
</defs>
</svg>
