<svg width="15" height="15" viewBox="0 0 15 15" fill="none" xmlns="http://www.w3.org/2000/svg">
<g clip-path="url(#clip0_46_4428)">
<path d="M14.402 4.61213C13.2384 1.88191 10.5309 0 7.46912 0C3.30553 0 0 3.43554 0 7.52763C0 11.6197 3.34128 14.9967 7.46912 14.9967C11.597 14.9967 14.9967 11.6847 14.9967 7.52763C14.9967 6.52004 14.7952 5.53846 14.3987 4.60888L14.402 4.61213Z" fill="black"/>
<path d="M11.6912 5.85426C11.5125 5.67875 11.2849 5.56499 11.0477 5.53248V3.41331C11.0477 3.3158 10.9892 3.22154 10.8982 3.18254C10.8039 3.14028 10.6966 3.15979 10.6219 3.22479C9.052 4.60291 6.17551 4.93443 5.78873 4.97344H4.35211C3.40953 4.98644 2.65222 5.83151 2.66847 6.84559C2.67497 7.32663 2.85699 7.78167 3.17551 8.12295C3.49729 8.47073 3.92307 8.65924 4.38136 8.65924H4.74214L5.59046 11.591C5.59046 11.591 5.59696 11.604 5.60021 11.6105C5.68797 11.877 5.87324 12.0948 6.12351 12.228C6.28277 12.3158 6.46154 12.3548 6.63705 12.3548C6.74106 12.3548 6.84507 12.3418 6.94908 12.3093C7.2221 12.2248 7.45612 12.0428 7.59263 11.7925C7.72914 11.5455 7.76489 11.2595 7.69664 10.9864C7.69339 10.9799 7.69339 10.9734 7.69339 10.9669L7.07909 8.86076C8.15168 9.08503 9.6338 9.53032 10.6121 10.3916C10.6609 10.4339 10.7194 10.4566 10.7811 10.4566C10.8169 10.4566 10.8527 10.4501 10.8884 10.4339C10.9794 10.3916 11.0379 10.3006 11.0379 10.2031V8.07745C11.6295 7.99294 12.0878 7.44364 12.078 6.78709C12.0715 6.43281 11.9285 6.09478 11.6815 5.85751L11.6912 5.85426ZM4.04983 8.09045C4.00108 8.0742 3.95558 8.05469 3.91007 8.03194C3.90682 8.03194 3.90357 8.02869 3.90032 8.02869C3.89057 8.02544 3.88082 8.01894 3.87107 8.01569C3.82557 7.99294 3.78331 7.96694 3.74756 7.94093C3.72481 7.92468 3.69881 7.90518 3.6793 7.88893C3.6598 7.86943 3.63705 7.84993 3.6143 7.83043C3.57204 7.79142 3.53304 7.74917 3.49729 7.70691C3.45504 7.65491 3.41603 7.60291 3.38353 7.5444C3.35103 7.49565 3.32827 7.44364 3.30227 7.38839C3.28277 7.34613 3.26652 7.30713 3.25352 7.26488C3.25027 7.25838 3.25027 7.24863 3.24702 7.24213C3.22752 7.18362 3.21126 7.12187 3.20151 7.05686C3.19501 7.02111 3.19176 6.9886 3.18851 6.9496C3.18526 6.91385 3.18201 6.8781 3.18201 6.83909C3.18201 6.81959 3.18201 6.79359 3.18526 6.77084C3.18201 6.75134 3.18526 6.72858 3.18851 6.70583C3.19176 6.63433 3.20151 6.55957 3.22427 6.48806C3.22752 6.45231 3.23727 6.41981 3.25352 6.3873C3.26652 6.3353 3.28927 6.28655 3.30877 6.23779C3.32827 6.19229 3.35428 6.14353 3.37703 6.09803C3.42903 6.01027 3.48754 5.92902 3.55579 5.85426C3.59155 5.81851 3.6273 5.78601 3.6663 5.7535C3.70206 5.721 3.74106 5.69175 3.78331 5.66574C3.81257 5.64949 3.83857 5.62999 3.87107 5.61699C3.90032 5.60074 3.92632 5.58774 3.95558 5.57799C3.98808 5.56174 4.01733 5.54874 4.05309 5.53898V8.0937L4.04983 8.09045ZM4.56338 8.14245V5.48373H5.51246V8.14245H4.56338ZM7.19935 11.0969C7.19935 11.0969 7.2026 11.1002 7.2026 11.1034C7.2871 11.409 7.10509 11.7275 6.80281 11.8153C6.50379 11.9063 6.18201 11.734 6.0845 11.435C6.0845 11.435 6.0845 11.4317 6.08125 11.4285L5.27519 8.65599H5.75623C5.80823 8.65924 6.0975 8.6885 6.51679 8.75675L7.1961 11.0969H7.19935ZM10.5341 9.67008C9.80606 9.15979 8.85048 8.75675 7.68364 8.46748C6.96208 8.29196 6.34778 8.20421 6.02925 8.1652V5.45773C6.0715 5.45123 6.11701 5.44798 6.16576 5.44148C6.26327 5.42847 6.37703 5.40897 6.50704 5.39272C6.56879 5.38297 6.6403 5.36997 6.70856 5.35697C6.99458 5.30496 7.32611 5.23996 7.68364 5.14895C8.85698 4.85318 9.80931 4.44689 10.5374 3.93985V9.67333L10.5341 9.67008ZM11.0477 7.54765V6.05253C11.1549 6.08178 11.2524 6.13703 11.3369 6.21829C11.4865 6.3613 11.5742 6.56932 11.5775 6.78709C11.584 7.15437 11.3564 7.46639 11.0509 7.54765H11.0477Z" fill="white"/>
</g>
<defs>
<clipPath id="clip0_46_4428">
<rect width="15" height="15" fill="white"/>
</clipPath>
</defs>
</svg>
