<svg width="15" height="16" viewBox="0 0 15 16" fill="none" xmlns="http://www.w3.org/2000/svg">
<g clip-path="url(#clip0_46_4475)">
<path d="M14.402 5.51252C13.2384 2.7823 10.5309 0.900391 7.46912 0.900391C3.30553 0.900391 0 4.33593 0 8.42802C0 12.5201 3.34128 15.8971 7.46912 15.8971C11.597 15.8971 14.9967 12.5851 14.9967 8.42802C14.9967 7.42043 14.7952 6.43885 14.3987 5.50927L14.402 5.51252Z" fill="black"/>
<path d="M12.182 7.87488H10.8331L11.4929 5.22266H10.5276L9.90031 7.87488H8.44744L7.71613 5.22266H6.83856L6.08775 7.87488H4.62512L4.00757 5.22266H2.92523L3.59154 7.87488H2.23618V8.69395H3.79631L4.69013 12.253H5.72372L6.7248 8.69395H7.73563L8.71071 12.253H9.7443L10.6284 8.69395H12.182V7.87488ZM5.30118 10.6506H5.27193L4.81689 8.69395H5.85373L5.30118 10.6506ZM6.95557 7.87488L7.22209 6.92255H7.25134L7.51136 7.87488H6.95557ZM9.24051 10.6506H9.21126L8.67171 8.69395H9.70205L9.24051 10.6506Z" fill="white"/>
</g>
<defs>
<clipPath id="clip0_46_4475">
<rect width="15" height="15" fill="white" transform="translate(0 0.900391)"/>
</clipPath>
</defs>
</svg>
