<svg width="15" height="16" viewBox="0 0 15 16" fill="none" xmlns="http://www.w3.org/2000/svg">
<g clip-path="url(#clip0_46_4472)">
<path d="M14.402 5.21174C13.2384 2.48152 10.5309 0.599609 7.46912 0.599609C3.30553 0.599609 0 4.03515 0 8.12724C0 12.2193 3.34128 15.5964 7.46912 15.5964C11.597 15.5964 14.9967 12.2843 14.9967 8.12724C14.9967 7.11965 14.7952 6.13807 14.3987 5.20849L14.402 5.21174Z" fill="black"/>
<path d="M11.9675 6.22984C11.2134 4.46169 9.46152 3.24609 7.47886 3.24609C4.78438 3.24609 2.64246 5.46928 2.64246 8.1215C2.64246 10.7737 4.80389 12.9579 7.47886 12.9579C10.1538 12.9579 12.3543 10.8127 12.3543 8.1215C12.3543 7.4682 12.2243 6.83439 11.9675 6.23309V6.22984ZM10.5991 7.83548C10.5081 7.58195 10.3033 7.38369 10.0433 7.30243C10.0173 7.01641 9.97832 6.73688 9.92631 6.46711C10.6056 6.69788 11.5092 7.15942 11.7367 7.83223H10.5991V7.83548ZM9.79955 8.40427C9.79955 8.40427 9.79955 8.40427 9.7963 8.40427C9.79305 8.40427 9.78655 8.40427 9.7833 8.40427C9.63379 8.39777 9.51353 8.27426 9.51353 8.1215C9.51353 7.97199 9.63054 7.84848 9.7768 7.83873C9.7833 7.83873 9.7898 7.83873 9.7963 7.83873C9.7963 7.83873 9.7963 7.83873 9.79955 7.83873C9.95557 7.83873 10.0791 7.96874 10.0791 8.1215C10.0791 8.27426 9.95232 8.40427 9.79955 8.40427ZM9.47453 7.32843C9.25026 7.41944 9.07149 7.60471 8.99023 7.83548H7.76488V6.09658C8.30443 6.11283 8.82447 6.18109 9.30876 6.29485C9.38677 6.62313 9.44202 6.9709 9.47453 7.33168V7.32843ZM5.60995 6.64913C5.89598 6.61012 6.1365 6.42486 6.26001 6.17459C6.56553 6.12908 6.88081 6.10308 7.19934 6.09333V7.83223H5.49619C5.50919 7.42594 5.5482 7.01966 5.60995 6.64913ZM7.76488 5.52453V3.86039C8.31093 4.03916 8.80822 4.72497 9.13 5.67405C8.69446 5.58954 8.23292 5.54078 7.76488 5.52453ZM7.19609 3.86039V5.52453C6.89706 5.53428 6.60454 5.55704 6.31526 5.59279C6.27301 5.42052 6.1755 5.27101 6.04549 5.15725C6.35752 4.4617 6.76705 4.00341 7.19609 3.86039ZM5.48969 5.51803C5.64571 5.51803 5.77572 5.64479 5.77572 5.80406C5.77572 5.96332 5.64896 6.09008 5.48969 6.09008C5.33043 6.09008 5.20367 5.96332 5.20367 5.80406C5.20367 5.64479 5.33043 5.51803 5.48969 5.51803ZM4.9729 6.48011C4.9989 6.49961 5.0249 6.51912 5.05091 6.53537C4.98265 6.94165 4.93715 7.39019 4.92415 7.83223H3.26001C3.42902 7.30568 4.05957 6.80189 4.9729 6.48011ZM4.9274 8.40102C4.9404 8.87231 4.98915 9.3241 5.06716 9.74664C4.11483 9.43461 3.43877 8.94707 3.26326 8.40102H4.9274ZM5.49619 8.40102H7.19934V9.58737C6.96857 9.66863 6.7833 9.84739 6.69229 10.0717C6.33801 10.0392 5.99999 9.98716 5.68146 9.91565C5.5742 9.44436 5.51245 8.93082 5.49619 8.40102ZM7.48211 10.6762C7.3261 10.6762 7.19934 10.5495 7.19934 10.3967C7.19934 10.3967 7.19934 10.3967 7.19934 10.3934C7.19934 10.3902 7.19934 10.3837 7.19934 10.3804C7.20584 10.2309 7.32935 10.1107 7.48211 10.1107C7.63487 10.1107 7.75838 10.2309 7.76488 10.3804C7.76488 10.3837 7.76488 10.3902 7.76488 10.3934C7.76488 10.3934 7.76488 10.3934 7.76488 10.3967C7.76488 10.5527 7.63487 10.6762 7.48211 10.6762ZM6.66629 10.6405C6.7443 10.9005 6.94581 11.1052 7.19934 11.1963V12.3339C6.52328 12.1063 6.07474 11.2028 5.85372 10.53C6.117 10.5787 6.39002 10.6145 6.66954 10.6405H6.66629ZM7.76813 12.3371V11.1963C8.02165 11.1052 8.21992 10.9005 8.30118 10.6405C8.59045 10.6145 8.87322 10.5755 9.14625 10.5234C8.91548 11.2028 8.45069 12.1128 7.76813 12.3339V12.3371ZM8.27517 10.0717C8.18417 9.84739 7.9989 9.66863 7.76813 9.58737V8.40102H8.99349C9.07474 8.63179 9.25351 8.81706 9.47778 8.90806C9.44527 9.25584 9.39327 9.59062 9.31851 9.90915C8.98698 9.98391 8.63595 10.0392 8.27517 10.0717ZM10.0466 8.93082C10.3066 8.85281 10.5114 8.64804 10.6024 8.39452H11.74C11.5157 9.05758 10.6056 9.51262 9.93606 9.73688C9.98482 9.47686 10.0238 9.20709 10.0466 8.93082ZM11.5384 6.66538C11.0412 6.2721 10.3976 5.99582 9.78005 5.82031C9.60454 5.20276 9.33151 4.5592 8.93173 4.05866C10.1408 4.49095 11.1029 5.45303 11.5384 6.66538ZM6.03574 4.06516C5.84397 4.30893 5.67171 4.60471 5.51895 4.94924C5.50919 4.94924 5.50269 4.94924 5.49294 4.94924C4.95015 4.94924 4.54061 5.45303 4.66087 5.98932C4.19284 6.16809 3.79305 6.38911 3.47453 6.64588C3.90681 5.44978 4.84939 4.5007 6.03574 4.06841V4.06516ZM3.47128 9.56137C3.96532 9.9514 4.60237 10.2147 5.21342 10.3837C5.40844 11.089 5.69121 11.6903 6.03899 12.1323C4.84614 11.7033 3.90031 10.7542 3.47128 9.56462V9.56137ZM8.94473 12.1291C9.34451 11.6285 9.61429 10.9882 9.78655 10.3772C10.3976 10.2082 11.0412 9.94165 11.5384 9.55162C11.1062 10.7477 10.1506 11.7 8.94473 12.1323V12.1291Z" fill="white"/>
</g>
<defs>
<clipPath id="clip0_46_4472">
<rect width="15" height="15" fill="white" transform="translate(0 0.599609)"/>
</clipPath>
</defs>
</svg>
