<svg width="15" height="16" viewBox="0 0 15 16" fill="none" xmlns="http://www.w3.org/2000/svg">
<g clip-path="url(#clip0_46_4469)">
<path d="M14.402 4.91292C13.2384 2.18269 10.5309 0.300781 7.46912 0.300781C3.30553 0.300781 0 3.73632 0 7.82841C0 11.9205 3.34128 15.2975 7.46912 15.2975C11.597 15.2975 14.9967 11.9855 14.9967 7.82841C14.9967 6.82082 14.7952 5.83924 14.3987 4.90967L14.402 4.91292Z" fill="black"/>
<path d="M11.9772 10.0454L10.8039 8.87206C10.4789 8.54703 9.95233 8.54703 9.63055 8.87206L9.09751 9.4051C8.85374 9.64888 8.45395 9.64888 8.20693 9.4051L5.89599 7.09091C5.64897 6.84389 5.64897 6.44736 5.89599 6.20034L6.42903 5.66729C6.75081 5.34552 6.75406 4.81897 6.42903 4.49395L5.25569 3.32385C4.93066 2.99882 4.40412 2.99882 4.08234 3.32385C3.84182 3.56437 3.76381 3.63912 3.6533 3.74638C2.48646 4.91323 2.48646 6.81139 3.6533 7.97824L7.31636 11.6445C8.48646 12.8146 10.3781 12.8146 11.5482 11.6445L11.974 11.2188C12.299 10.8937 12.299 10.3672 11.974 10.0454H11.9772ZM10.4139 9.26209L11.5872 10.4354C11.6945 10.5427 11.6945 10.7182 11.5872 10.8255L11.3922 11.0205L9.82882 9.45711L10.0238 9.26209C10.1311 9.15483 10.3066 9.15483 10.4139 9.26209ZM4.86565 3.71388L6.039 4.88398C6.14626 4.99124 6.14626 5.16675 6.039 5.27401L5.84399 5.46903L4.28061 3.90565L4.47562 3.71388C4.58288 3.60662 4.7584 3.60662 4.86565 3.71388ZM7.70964 11.2513L4.04659 7.58495C3.14301 6.68138 3.09426 5.26426 3.89382 4.30218L5.45395 5.86231C5.04442 6.3271 5.06067 7.03566 5.50596 7.47769L7.8169 9.79189C8.25894 10.2339 8.9675 10.2534 9.43228 9.84389L10.9924 11.404C10.0336 12.2036 8.61972 12.1613 7.70964 11.2513Z" fill="white"/>
</g>
<defs>
<clipPath id="clip0_46_4469">
<rect width="15" height="15" fill="white" transform="translate(0 0.300781)"/>
</clipPath>
</defs>
</svg>
